<svg width="22" height="22" viewBox="0 0 22 22" fill="none" xmlns="http://www.w3.org/2000/svg">
<path d="M11.018 2.66765C7.98379 2.66765 5.51796 5.13348 5.51796 8.16765V10.8169C5.51796 11.376 5.27962 12.2285 4.99546 12.7052L3.94129 14.456C3.29046 15.5377 3.73962 16.7385 4.93129 17.1419C8.88212 18.4619 13.1446 18.4619 17.0955 17.1419C18.2046 16.7752 18.6905 15.4644 18.0855 14.456L17.0313 12.7052C16.7563 12.2285 16.518 11.376 16.518 10.8169V8.16765C16.518 5.14265 14.043 2.66765 11.018 2.66765Z" stroke="#888E97" stroke-width="1.5" stroke-miterlimit="10" stroke-linecap="round"/>
<path d="M12.7141 2.93328C12.4299 2.85078 12.1366 2.78661 11.8341 2.74994C10.9541 2.63994 10.1108 2.70411 9.32242 2.93328C9.58825 2.25494 10.2483 1.77828 11.0183 1.77828C11.7883 1.77828 12.4483 2.25494 12.7141 2.93328Z" stroke="#888E97" stroke-width="1.5" stroke-miterlimit="10" stroke-linecap="round" stroke-linejoin="round"/>
<path opacity="0.4" d="M13.7679 17.4718C13.7679 18.9843 12.5304 20.2218 11.0179 20.2218C10.2662 20.2218 9.56955 19.9101 9.07458 19.4151C8.57958 18.9201 8.26791 18.2234 8.26791 17.4718" stroke="#888E97" stroke-miterlimit="10"/>
</svg>
