<svg width="30" height="30" viewBox="0 0 30 30" fill="none" xmlns="http://www.w3.org/2000/svg">
<path opacity="0.4" d="M13.75 2.5H11.25C5 2.5 2.5 5 2.5 11.25V18.75C2.5 25 5 27.5 11.25 27.5H18.75C25 27.5 27.5 25 27.5 18.75V16.25" stroke="#0162FF" stroke-width="1.8" stroke-linecap="round" stroke-linejoin="round"/>
<path d="M20.0499 3.77471L10.1998 13.6248C9.82485 13.9998 9.44985 14.7373 9.37485 15.2748L8.83735 19.0373C8.63735 20.3998 9.59985 21.3498 10.9623 21.1623L14.7249 20.6248C15.2499 20.5498 15.9874 20.1748 16.3749 19.7998L26.2249 9.94971C27.9249 8.24971 28.7249 6.27471 26.2249 3.77471C23.7249 1.27471 21.7499 2.07471 20.0499 3.77471Z" stroke="#0162FF" stroke-width="1.8" stroke-miterlimit="10" stroke-linecap="round" stroke-linejoin="round"/>
<path opacity="0.4" d="M18.6378 5.18738C19.4753 8.17488 21.8128 10.5124 24.8128 11.3624" stroke="#0162FF" stroke-width="1.5" stroke-miterlimit="10" stroke-linecap="round" stroke-linejoin="round"/>
</svg>
