<svg width="27" height="27" viewBox="0 0 27 27" fill="none" xmlns="http://www.w3.org/2000/svg">
<path d="M15.6615 2.80523L17.8613 7.24111C18.1612 7.8586 18.9611 8.45089 19.6361 8.56431L23.6231 9.23221C26.1728 9.66068 26.7728 11.5257 24.9355 13.3656L21.8358 16.4909C21.3109 17.0202 21.0234 18.0409 21.1859 18.7718L22.0733 22.6406C22.7732 25.7029 21.1609 26.8875 18.4737 25.287L14.7366 23.0565C14.0617 22.6532 12.9493 22.6532 12.2619 23.0565L8.52479 25.287C5.85009 26.8875 4.22527 25.6903 4.92519 22.6406L5.81259 18.7718C5.97507 18.0409 5.68761 17.0202 5.16266 16.4909L2.06301 13.3656C0.238211 11.5257 0.825646 9.66068 3.37536 9.23221L7.36242 8.56431C8.02485 8.45089 8.82476 7.8586 9.12472 7.24111L11.3245 2.80523C12.5244 0.398258 14.4741 0.398258 15.6615 2.80523Z" fill="#0162FF" stroke="#0162FF" stroke-width="2" stroke-linecap="round" stroke-linejoin="round"/>
</svg>
